<?xml version="1.0" encoding="utf-8" standalone="no"?>
<!DOCTYPE svg PUBLIC "-//W3C//DTD SVG 1.1//EN"
  "http://www.w3.org/Graphics/SVG/1.1/DTD/svg11.dtd">
<!-- Created with matplotlib (https://matplotlib.org/) -->
<svg height="288pt" version="1.1" viewBox="0 0 432 288" width="432pt" xmlns="http://www.w3.org/2000/svg" xmlns:xlink="http://www.w3.org/1999/xlink">
 <defs>
  <style type="text/css">
*{stroke-linecap:butt;stroke-linejoin:round;}
  </style>
 </defs>
 <g id="figure_1">
  <g id="patch_1">
   <path d="M 0 288 
L 432 288 
L 432 0 
L 0 0 
z
" style="fill:#ffffff;"/>
  </g>
  <g id="axes_1">
   <g id="patch_2">
    <path d="M 54 252 
L 388.8 252 
L 388.8 34.56 
L 54 34.56 
z
" style="fill:#ffffff;"/>
   </g>
   <g id="matplotlib.axis_1">
    <g id="xtick_1">
     <g id="line2d_1">
      <path clip-path="url(#pcf4fa9585e)" d="M 69.218182 252 
L 69.218182 34.56 
" style="fill:none;stroke:#b0b0b0;stroke-linecap:square;stroke-width:0.8;"/>
     </g>
     <g id="line2d_2">
      <defs>
       <path d="M 0 0 
L 0 3.5 
" id="m62625d0ff4" style="stroke:#000000;stroke-width:0.8;"/>
      </defs>
      <g>
       <use style="stroke:#000000;stroke-width:0.8;" x="69.218182" xlink:href="#m62625d0ff4" y="252"/>
      </g>
     </g>
     <g id="text_1">
      <!-- $\mathdefault{10^{-1}}$ -->
      <defs>
       <path d="M 12.40625 8.296875 
L 28.515625 8.296875 
L 28.515625 63.921875 
L 10.984375 60.40625 
L 10.984375 69.390625 
L 28.421875 72.90625 
L 38.28125 72.90625 
L 38.28125 8.296875 
L 54.390625 8.296875 
L 54.390625 0 
L 12.40625 0 
z
" id="DejaVuSans-49"/>
       <path d="M 31.78125 66.40625 
Q 24.171875 66.40625 20.328125 58.90625 
Q 16.5 51.421875 16.5 36.375 
Q 16.5 21.390625 20.328125 13.890625 
Q 24.171875 6.390625 31.78125 6.390625 
Q 39.453125 6.390625 43.28125 13.890625 
Q 47.125 21.390625 47.125 36.375 
Q 47.125 51.421875 43.28125 58.90625 
Q 39.453125 66.40625 31.78125 66.40625 
z
M 31.78125 74.21875 
Q 44.046875 74.21875 50.515625 64.515625 
Q 56.984375 54.828125 56.984375 36.375 
Q 56.984375 17.96875 50.515625 8.265625 
Q 44.046875 -1.421875 31.78125 -1.421875 
Q 19.53125 -1.421875 13.0625 8.265625 
Q 6.59375 17.96875 6.59375 36.375 
Q 6.59375 54.828125 13.0625 64.515625 
Q 19.53125 74.21875 31.78125 74.21875 
z
" id="DejaVuSans-48"/>
       <path d="M 10.59375 35.5 
L 73.1875 35.5 
L 73.1875 27.203125 
L 10.59375 27.203125 
z
" id="DejaVuSans-8722"/>
      </defs>
      <g transform="translate(57.468182 266.598437)scale(0.1 -0.1)">
       <use transform="translate(0 0.684375)" xlink:href="#DejaVuSans-49"/>
       <use transform="translate(63.623047 0.684375)" xlink:href="#DejaVuSans-48"/>
       <use transform="translate(128.203125 38.965625)scale(0.7)" xlink:href="#DejaVuSans-8722"/>
       <use transform="translate(186.855469 38.965625)scale(0.7)" xlink:href="#DejaVuSans-49"/>
      </g>
     </g>
    </g>
    <g id="xtick_2">
     <g id="line2d_3">
      <path clip-path="url(#pcf4fa9585e)" d="M 303.344056 252 
L 303.344056 34.56 
" style="fill:none;stroke:#b0b0b0;stroke-linecap:square;stroke-width:0.8;"/>
     </g>
     <g id="line2d_4">
      <g>
       <use style="stroke:#000000;stroke-width:0.8;" x="303.344056" xlink:href="#m62625d0ff4" y="252"/>
      </g>
     </g>
     <g id="text_2">
      <!-- $\mathdefault{10^{0}}$ -->
      <g transform="translate(294.544056 266.598437)scale(0.1 -0.1)">
       <use transform="translate(0 0.765625)" xlink:href="#DejaVuSans-49"/>
       <use transform="translate(63.623047 0.765625)" xlink:href="#DejaVuSans-48"/>
       <use transform="translate(128.203125 39.046875)scale(0.7)" xlink:href="#DejaVuSans-48"/>
      </g>
     </g>
    </g>
    <g id="xtick_3">
     <g id="line2d_5">
      <defs>
       <path d="M 0 0 
L 0 2 
" id="m8b99213547" style="stroke:#000000;stroke-width:0.6;"/>
      </defs>
      <g>
       <use style="stroke:#000000;stroke-width:0.6;" x="58.505169" xlink:href="#m8b99213547" y="252"/>
      </g>
     </g>
    </g>
    <g id="xtick_4">
     <g id="line2d_6">
      <g>
       <use style="stroke:#000000;stroke-width:0.6;" x="139.697093" xlink:href="#m8b99213547" y="252"/>
      </g>
     </g>
    </g>
    <g id="xtick_5">
     <g id="line2d_7">
      <g>
       <use style="stroke:#000000;stroke-width:0.6;" x="180.924613" xlink:href="#m8b99213547" y="252"/>
      </g>
     </g>
    </g>
    <g id="xtick_6">
     <g id="line2d_8">
      <g>
       <use style="stroke:#000000;stroke-width:0.6;" x="210.176004" xlink:href="#m8b99213547" y="252"/>
      </g>
     </g>
    </g>
    <g id="xtick_7">
     <g id="line2d_9">
      <g>
       <use style="stroke:#000000;stroke-width:0.6;" x="232.865145" xlink:href="#m8b99213547" y="252"/>
      </g>
     </g>
    </g>
    <g id="xtick_8">
     <g id="line2d_10">
      <g>
       <use style="stroke:#000000;stroke-width:0.6;" x="251.403524" xlink:href="#m8b99213547" y="252"/>
      </g>
     </g>
    </g>
    <g id="xtick_9">
     <g id="line2d_11">
      <g>
       <use style="stroke:#000000;stroke-width:0.6;" x="267.077499" xlink:href="#m8b99213547" y="252"/>
      </g>
     </g>
    </g>
    <g id="xtick_10">
     <g id="line2d_12">
      <g>
       <use style="stroke:#000000;stroke-width:0.6;" x="280.654914" xlink:href="#m8b99213547" y="252"/>
      </g>
     </g>
    </g>
    <g id="xtick_11">
     <g id="line2d_13">
      <g>
       <use style="stroke:#000000;stroke-width:0.6;" x="292.631043" xlink:href="#m8b99213547" y="252"/>
      </g>
     </g>
    </g>
    <g id="xtick_12">
     <g id="line2d_14">
      <g>
       <use style="stroke:#000000;stroke-width:0.6;" x="373.822967" xlink:href="#m8b99213547" y="252"/>
      </g>
     </g>
    </g>
    <g id="text_3">
     <!-- $d / n$ -->
     <defs>
      <path d="M 41.796875 8.203125 
Q 38.1875 3.46875 33.25 1.015625 
Q 28.328125 -1.421875 22.3125 -1.421875 
Q 14.109375 -1.421875 9.34375 4.171875 
Q 4.59375 9.765625 4.59375 19.484375 
Q 4.59375 27.59375 7.46875 34.9375 
Q 10.359375 42.28125 15.828125 48.09375 
Q 19.4375 51.953125 23.96875 53.96875 
Q 28.515625 56 33.5 56 
Q 38.765625 56 42.796875 53.453125 
Q 46.828125 50.921875 49.03125 46.1875 
L 54.890625 75.984375 
L 63.921875 75.984375 
L 49.125 0 
L 40.09375 0 
z
M 13.921875 21.09375 
Q 13.921875 14.015625 17.109375 10.0625 
Q 20.3125 6.109375 25.984375 6.109375 
Q 30.171875 6.109375 33.765625 8.125 
Q 37.359375 10.15625 40.09375 14.109375 
Q 42.96875 18.21875 44.625 23.578125 
Q 46.296875 28.953125 46.296875 34.1875 
Q 46.296875 40.96875 43.09375 44.765625 
Q 39.890625 48.578125 34.28125 48.578125 
Q 30.03125 48.578125 26.359375 46.578125 
Q 22.703125 44.578125 20.125 40.828125 
Q 17.28125 36.765625 15.59375 31.390625 
Q 13.921875 26.03125 13.921875 21.09375 
z
" id="DejaVuSans-Oblique-100"/>
      <path d="M 25.390625 72.90625 
L 33.6875 72.90625 
L 8.296875 -9.28125 
L 0 -9.28125 
z
" id="DejaVuSans-47"/>
      <path d="M 55.71875 33.015625 
L 49.3125 0 
L 40.28125 0 
L 46.6875 32.671875 
Q 47.125 34.96875 47.359375 36.71875 
Q 47.609375 38.484375 47.609375 39.5 
Q 47.609375 43.609375 45.015625 45.890625 
Q 42.4375 48.1875 37.796875 48.1875 
Q 30.5625 48.1875 25.34375 43.375 
Q 20.125 38.578125 18.5 30.328125 
L 12.5 0 
L 3.515625 0 
L 14.109375 54.6875 
L 23.09375 54.6875 
L 21.296875 46.09375 
Q 25.046875 50.828125 30.3125 53.40625 
Q 35.59375 56 41.40625 56 
Q 48.640625 56 52.609375 52.09375 
Q 56.59375 48.1875 56.59375 41.109375 
Q 56.59375 39.359375 56.375 37.359375 
Q 56.15625 35.359375 55.71875 33.015625 
z
" id="DejaVuSans-Oblique-110"/>
     </defs>
     <g transform="translate(213.35 280.276563)scale(0.1 -0.1)">
      <use transform="translate(0 0.015625)" xlink:href="#DejaVuSans-Oblique-100"/>
      <use transform="translate(63.476562 0.015625)" xlink:href="#DejaVuSans-47"/>
      <use transform="translate(97.167969 0.015625)" xlink:href="#DejaVuSans-Oblique-110"/>
     </g>
    </g>
   </g>
   <g id="matplotlib.axis_2">
    <g id="ytick_1">
     <g id="line2d_15">
      <path clip-path="url(#pcf4fa9585e)" d="M 54 154.251423 
L 388.8 154.251423 
" style="fill:none;stroke:#b0b0b0;stroke-linecap:square;stroke-width:0.8;"/>
     </g>
     <g id="line2d_16">
      <defs>
       <path d="M 0 0 
L -3.5 0 
" id="m1b6aa11849" style="stroke:#000000;stroke-width:0.8;"/>
      </defs>
      <g>
       <use style="stroke:#000000;stroke-width:0.8;" x="54" xlink:href="#m1b6aa11849" y="154.251423"/>
      </g>
     </g>
     <g id="text_4">
      <!-- $\mathdefault{10^{-1}}$ -->
      <g transform="translate(23.5 158.050642)scale(0.1 -0.1)">
       <use transform="translate(0 0.684375)" xlink:href="#DejaVuSans-49"/>
       <use transform="translate(63.623047 0.684375)" xlink:href="#DejaVuSans-48"/>
       <use transform="translate(128.203125 38.965625)scale(0.7)" xlink:href="#DejaVuSans-8722"/>
       <use transform="translate(186.855469 38.965625)scale(0.7)" xlink:href="#DejaVuSans-49"/>
      </g>
     </g>
    </g>
    <g id="ytick_2">
     <g id="line2d_17">
      <defs>
       <path d="M 0 0 
L -2 0 
" id="m797d9dcb2c" style="stroke:#000000;stroke-width:0.6;"/>
      </defs>
      <g>
       <use style="stroke:#000000;stroke-width:0.6;" x="54" xlink:href="#m797d9dcb2c" y="237.983382"/>
      </g>
     </g>
    </g>
    <g id="ytick_3">
     <g id="line2d_18">
      <g>
       <use style="stroke:#000000;stroke-width:0.6;" x="54" xlink:href="#m797d9dcb2c" y="216.88882"/>
      </g>
     </g>
    </g>
    <g id="ytick_4">
     <g id="line2d_19">
      <g>
       <use style="stroke:#000000;stroke-width:0.6;" x="54" xlink:href="#m797d9dcb2c" y="201.92199"/>
      </g>
     </g>
    </g>
    <g id="ytick_5">
     <g id="line2d_20">
      <g>
       <use style="stroke:#000000;stroke-width:0.6;" x="54" xlink:href="#m797d9dcb2c" y="190.312815"/>
      </g>
     </g>
    </g>
    <g id="ytick_6">
     <g id="line2d_21">
      <g>
       <use style="stroke:#000000;stroke-width:0.6;" x="54" xlink:href="#m797d9dcb2c" y="180.827428"/>
      </g>
     </g>
    </g>
    <g id="ytick_7">
     <g id="line2d_22">
      <g>
       <use style="stroke:#000000;stroke-width:0.6;" x="54" xlink:href="#m797d9dcb2c" y="172.807648"/>
      </g>
     </g>
    </g>
    <g id="ytick_8">
     <g id="line2d_23">
      <g>
       <use style="stroke:#000000;stroke-width:0.6;" x="54" xlink:href="#m797d9dcb2c" y="165.860598"/>
      </g>
     </g>
    </g>
    <g id="ytick_9">
     <g id="line2d_24">
      <g>
       <use style="stroke:#000000;stroke-width:0.6;" x="54" xlink:href="#m797d9dcb2c" y="159.732866"/>
      </g>
     </g>
    </g>
    <g id="ytick_10">
     <g id="line2d_25">
      <g>
       <use style="stroke:#000000;stroke-width:0.6;" x="54" xlink:href="#m797d9dcb2c" y="118.190031"/>
      </g>
     </g>
    </g>
    <g id="ytick_11">
     <g id="line2d_26">
      <g>
       <use style="stroke:#000000;stroke-width:0.6;" x="54" xlink:href="#m797d9dcb2c" y="97.095469"/>
      </g>
     </g>
    </g>
    <g id="ytick_12">
     <g id="line2d_27">
      <g>
       <use style="stroke:#000000;stroke-width:0.6;" x="54" xlink:href="#m797d9dcb2c" y="82.128639"/>
      </g>
     </g>
    </g>
    <g id="ytick_13">
     <g id="line2d_28">
      <g>
       <use style="stroke:#000000;stroke-width:0.6;" x="54" xlink:href="#m797d9dcb2c" y="70.519463"/>
      </g>
     </g>
    </g>
    <g id="ytick_14">
     <g id="line2d_29">
      <g>
       <use style="stroke:#000000;stroke-width:0.6;" x="54" xlink:href="#m797d9dcb2c" y="61.034077"/>
      </g>
     </g>
    </g>
    <g id="ytick_15">
     <g id="line2d_30">
      <g>
       <use style="stroke:#000000;stroke-width:0.6;" x="54" xlink:href="#m797d9dcb2c" y="53.014296"/>
      </g>
     </g>
    </g>
    <g id="ytick_16">
     <g id="line2d_31">
      <g>
       <use style="stroke:#000000;stroke-width:0.6;" x="54" xlink:href="#m797d9dcb2c" y="46.067247"/>
      </g>
     </g>
    </g>
    <g id="ytick_17">
     <g id="line2d_32">
      <g>
       <use style="stroke:#000000;stroke-width:0.6;" x="54" xlink:href="#m797d9dcb2c" y="39.939514"/>
      </g>
     </g>
    </g>
   </g>
   <g id="line2d_33">
    <path clip-path="url(#pcf4fa9585e)" d="M 69.218182 45.008666 
L 71.775859 45.008666 
L 74.333537 45.294761 
L 76.891215 45.294761 
L 79.448892 46.255436 
L 82.00657 46.255436 
L 84.564248 46.052407 
L 87.121925 46.052407 
L 89.679603 46.719554 
L 92.23728 46.606505 
L 94.794958 46.606505 
L 97.352636 46.835807 
L 99.910313 50.280556 
L 102.467991 50.280556 
L 105.025668 50.214317 
L 107.583346 50.396683 
L 110.141024 50.396683 
L 112.698701 52.538454 
L 115.256379 52.282195 
L 117.814057 54.404663 
L 120.371734 53.648784 
L 122.929412 53.648784 
L 125.487089 52.937991 
L 128.044767 52.810128 
L 130.602445 52.913585 
L 133.160122 52.808817 
L 135.7178 55.219454 
L 138.275477 56.182579 
L 140.833155 55.717433 
L 143.390833 54.629686 
L 145.94851 55.678341 
L 148.506188 55.427107 
L 151.063866 55.096396 
L 153.621543 61.616142 
L 156.179221 61.275073 
L 158.736898 60.171297 
L 161.294576 61.362587 
L 163.852254 60.066261 
L 166.409931 59.570965 
L 168.967609 60.285877 
L 171.525286 59.28549 
L 174.082964 63.695937 
L 176.640642 63.750491 
L 179.198319 64.185379 
L 181.755997 62.908068 
L 184.313675 62.463502 
L 186.871352 67.73108 
L 189.42903 66.583065 
L 191.986707 67.437691 
L 194.544385 68.502237 
L 197.102063 75.597109 
L 199.65974 77.342093 
L 202.217418 76.949133 
L 204.775095 79.831943 
L 207.332773 82.933158 
L 209.890451 84.472577 
L 212.448128 86.123399 
L 215.005806 89.279003 
L 217.563484 90.553848 
L 220.121161 109.821956 
L 222.678839 112.746594 
L 225.236516 131.680688 
L 227.794194 171.386991 
L 230.351872 181.286286 
L 232.909549 231.683008 
L 235.467227 231.629138 
L 238.024905 227.821859 
L 240.582582 226.062337 
L 243.14026 222.534077 
L 245.697937 221.783815 
L 248.255615 219.575264 
L 250.813293 215.010272 
L 253.37097 214.367504 
L 255.928648 212.449754 
L 258.486325 210.676414 
L 261.044003 210.682787 
L 263.601681 204.745465 
L 266.159358 199.63802 
L 268.717036 199.212036 
L 271.274714 198.721503 
L 273.832391 192.158175 
L 276.390069 190.642723 
L 278.947746 178.772698 
L 281.505424 160.297146 
L 284.063102 158.482371 
L 286.620779 155.333866 
L 289.178457 152.537163 
L 291.736134 145.787508 
L 294.293812 143.816423 
L 296.85149 133.830851 
L 299.409167 131.509374 
L 301.966845 126.33502 
L 304.524523 124.264505 
L 307.0822 121.595941 
L 309.639878 120.365867 
L 312.197555 118.916219 
L 314.755233 116.010788 
L 317.312911 113.523501 
L 319.870588 111.682677 
L 322.428266 109.329162 
L 324.985943 106.706774 
L 327.543621 103.919308 
L 330.101299 99.712712 
L 332.658976 98.744715 
L 335.216654 95.35334 
L 337.774332 94.706685 
L 340.332009 92.778097 
L 342.889687 89.184208 
L 345.447364 86.391131 
L 348.005042 85.098875 
L 350.56272 83.006352 
L 353.120397 81.069789 
L 355.678075 78.155982 
L 358.235752 78.161093 
L 360.79343 75.881723 
L 363.351108 73.368597 
L 365.908785 72.132858 
L 368.466463 70.431434 
L 371.024141 69.062776 
L 373.581818 67.291587 
" style="fill:none;stroke:#1f77b4;stroke-linecap:square;stroke-width:4;"/>
   </g>
   <g id="line2d_34">
    <path clip-path="url(#pcf4fa9585e)" d="M 69.218182 45.245208 
L 71.775859 45.245208 
L 74.333537 45.731953 
L 76.891215 45.731953 
L 79.448892 46.523656 
L 82.00657 46.523656 
L 84.564248 46.30331 
L 87.121925 46.30331 
L 89.679603 46.820376 
L 92.23728 46.722005 
L 94.794958 46.722005 
L 97.352636 46.822055 
L 99.910313 49.289331 
L 102.467991 49.289331 
L 105.025668 49.25985 
L 107.583346 50.355878 
L 110.141024 50.355878 
L 112.698701 51.826354 
L 115.256379 51.830295 
L 117.814057 53.757515 
L 120.371734 52.948662 
L 122.929412 52.948662 
L 125.487089 52.404131 
L 128.044767 52.469528 
L 130.602445 52.790528 
L 133.160122 52.837225 
L 135.7178 55.055272 
L 138.275477 55.607482 
L 140.833155 55.788577 
L 143.390833 55.112065 
L 145.94851 57.049278 
L 148.506188 57.000771 
L 151.063866 55.921699 
L 153.621543 62.1759 
L 156.179221 62.259913 
L 158.736898 61.277589 
L 161.294576 62.160781 
L 163.852254 61.426335 
L 166.409931 61.284053 
L 168.967609 61.753468 
L 171.525286 60.951433 
L 174.082964 65.140384 
L 176.640642 65.197383 
L 179.198319 65.103594 
L 181.755997 64.832017 
L 184.313675 64.98339 
L 186.871352 69.808343 
L 189.42903 69.593153 
L 191.986707 70.361113 
L 194.544385 71.020077 
L 197.102063 77.462161 
L 199.65974 78.599323 
L 202.217418 78.230166 
L 204.775095 80.701347 
L 207.332773 82.84649 
L 209.890451 84.541366 
L 212.448128 86.436061 
L 215.005806 89.528202 
L 217.563484 90.275361 
L 220.121161 109.996349 
L 222.678839 112.627458 
L 225.236516 130.352842 
L 227.794194 173.841347 
L 230.351872 183.7601 
L 232.909549 242.116364 
L 235.467227 242.111274 
L 238.024905 238.959878 
L 240.582582 238.629578 
L 243.14026 238.083698 
L 245.697937 234.538073 
L 248.255615 228.892 
L 250.813293 226.464469 
L 253.37097 224.772525 
L 255.928648 222.022589 
L 258.486325 220.506899 
L 261.044003 219.896727 
L 263.601681 218.922259 
L 266.159358 219.626656 
L 268.717036 218.904828 
L 271.274714 217.339339 
L 273.832391 215.188852 
L 276.390069 214.080197 
L 278.947746 210.956808 
L 281.505424 200.416529 
L 284.063102 196.342759 
L 286.620779 188.786097 
L 289.178457 183.32464 
L 291.736134 169.595925 
L 294.293812 170.420669 
L 296.85149 154.30949 
L 299.409167 148.612971 
L 301.966845 138.334276 
L 304.524523 138.936405 
L 307.0822 118.06094 
L 309.639878 133.580099 
L 312.197555 129.209031 
L 314.755233 121.535621 
L 317.312911 117.610775 
L 319.870588 117.583335 
L 322.428266 117.733209 
L 324.985943 115.39387 
L 327.543621 110.699809 
L 330.101299 103.653349 
L 332.658976 102.232082 
L 335.216654 99.830117 
L 337.774332 99.006358 
L 340.332009 96.960339 
L 342.889687 93.014946 
L 345.447364 89.289495 
L 348.005042 86.097515 
L 350.56272 83.891007 
L 353.120397 80.638522 
L 355.678075 78.79463 
L 358.235752 78.446274 
L 360.79343 76.467907 
L 363.351108 73.378815 
L 365.908785 72.165865 
L 368.466463 70.469048 
L 371.024141 69.08141 
L 373.581818 67.354201 
" style="fill:none;stroke:#ff7f0e;stroke-dasharray:1.5,2.475;stroke-dashoffset:0;stroke-width:1.5;"/>
    <defs>
     <path d="M 0 -3 
L -0.673542 -0.927051 
L -2.85317 -0.927051 
L -1.089814 0.354102 
L -1.763356 2.427051 
L -0 1.145898 
L 1.763356 2.427051 
L 1.089814 0.354102 
L 2.85317 -0.927051 
L 0.673542 -0.927051 
z
" id="m7ecdf097ac" style="stroke:#ff7f0e;stroke-linejoin:bevel;"/>
    </defs>
    <g clip-path="url(#pcf4fa9585e)">
     <use style="fill:#ff7f0e;stroke:#ff7f0e;stroke-linejoin:bevel;" x="69.218182" xlink:href="#m7ecdf097ac" y="45.245208"/>
     <use style="fill:#ff7f0e;stroke:#ff7f0e;stroke-linejoin:bevel;" x="71.775859" xlink:href="#m7ecdf097ac" y="45.245208"/>
     <use style="fill:#ff7f0e;stroke:#ff7f0e;stroke-linejoin:bevel;" x="74.333537" xlink:href="#m7ecdf097ac" y="45.731953"/>
     <use style="fill:#ff7f0e;stroke:#ff7f0e;stroke-linejoin:bevel;" x="76.891215" xlink:href="#m7ecdf097ac" y="45.731953"/>
     <use style="fill:#ff7f0e;stroke:#ff7f0e;stroke-linejoin:bevel;" x="79.448892" xlink:href="#m7ecdf097ac" y="46.523656"/>
     <use style="fill:#ff7f0e;stroke:#ff7f0e;stroke-linejoin:bevel;" x="82.00657" xlink:href="#m7ecdf097ac" y="46.523656"/>
     <use style="fill:#ff7f0e;stroke:#ff7f0e;stroke-linejoin:bevel;" x="84.564248" xlink:href="#m7ecdf097ac" y="46.30331"/>
     <use style="fill:#ff7f0e;stroke:#ff7f0e;stroke-linejoin:bevel;" x="87.121925" xlink:href="#m7ecdf097ac" y="46.30331"/>
     <use style="fill:#ff7f0e;stroke:#ff7f0e;stroke-linejoin:bevel;" x="89.679603" xlink:href="#m7ecdf097ac" y="46.820376"/>
     <use style="fill:#ff7f0e;stroke:#ff7f0e;stroke-linejoin:bevel;" x="92.23728" xlink:href="#m7ecdf097ac" y="46.722005"/>
     <use style="fill:#ff7f0e;stroke:#ff7f0e;stroke-linejoin:bevel;" x="94.794958" xlink:href="#m7ecdf097ac" y="46.722005"/>
     <use style="fill:#ff7f0e;stroke:#ff7f0e;stroke-linejoin:bevel;" x="97.352636" xlink:href="#m7ecdf097ac" y="46.822055"/>
     <use style="fill:#ff7f0e;stroke:#ff7f0e;stroke-linejoin:bevel;" x="99.910313" xlink:href="#m7ecdf097ac" y="49.289331"/>
     <use style="fill:#ff7f0e;stroke:#ff7f0e;stroke-linejoin:bevel;" x="102.467991" xlink:href="#m7ecdf097ac" y="49.289331"/>
     <use style="fill:#ff7f0e;stroke:#ff7f0e;stroke-linejoin:bevel;" x="105.025668" xlink:href="#m7ecdf097ac" y="49.25985"/>
     <use style="fill:#ff7f0e;stroke:#ff7f0e;stroke-linejoin:bevel;" x="107.583346" xlink:href="#m7ecdf097ac" y="50.355878"/>
     <use style="fill:#ff7f0e;stroke:#ff7f0e;stroke-linejoin:bevel;" x="110.141024" xlink:href="#m7ecdf097ac" y="50.355878"/>
     <use style="fill:#ff7f0e;stroke:#ff7f0e;stroke-linejoin:bevel;" x="112.698701" xlink:href="#m7ecdf097ac" y="51.826354"/>
     <use style="fill:#ff7f0e;stroke:#ff7f0e;stroke-linejoin:bevel;" x="115.256379" xlink:href="#m7ecdf097ac" y="51.830295"/>
     <use style="fill:#ff7f0e;stroke:#ff7f0e;stroke-linejoin:bevel;" x="117.814057" xlink:href="#m7ecdf097ac" y="53.757515"/>
     <use style="fill:#ff7f0e;stroke:#ff7f0e;stroke-linejoin:bevel;" x="120.371734" xlink:href="#m7ecdf097ac" y="52.948662"/>
     <use style="fill:#ff7f0e;stroke:#ff7f0e;stroke-linejoin:bevel;" x="122.929412" xlink:href="#m7ecdf097ac" y="52.948662"/>
     <use style="fill:#ff7f0e;stroke:#ff7f0e;stroke-linejoin:bevel;" x="125.487089" xlink:href="#m7ecdf097ac" y="52.404131"/>
     <use style="fill:#ff7f0e;stroke:#ff7f0e;stroke-linejoin:bevel;" x="128.044767" xlink:href="#m7ecdf097ac" y="52.469528"/>
     <use style="fill:#ff7f0e;stroke:#ff7f0e;stroke-linejoin:bevel;" x="130.602445" xlink:href="#m7ecdf097ac" y="52.790528"/>
     <use style="fill:#ff7f0e;stroke:#ff7f0e;stroke-linejoin:bevel;" x="133.160122" xlink:href="#m7ecdf097ac" y="52.837225"/>
     <use style="fill:#ff7f0e;stroke:#ff7f0e;stroke-linejoin:bevel;" x="135.7178" xlink:href="#m7ecdf097ac" y="55.055272"/>
     <use style="fill:#ff7f0e;stroke:#ff7f0e;stroke-linejoin:bevel;" x="138.275477" xlink:href="#m7ecdf097ac" y="55.607482"/>
     <use style="fill:#ff7f0e;stroke:#ff7f0e;stroke-linejoin:bevel;" x="140.833155" xlink:href="#m7ecdf097ac" y="55.788577"/>
     <use style="fill:#ff7f0e;stroke:#ff7f0e;stroke-linejoin:bevel;" x="143.390833" xlink:href="#m7ecdf097ac" y="55.112065"/>
     <use style="fill:#ff7f0e;stroke:#ff7f0e;stroke-linejoin:bevel;" x="145.94851" xlink:href="#m7ecdf097ac" y="57.049278"/>
     <use style="fill:#ff7f0e;stroke:#ff7f0e;stroke-linejoin:bevel;" x="148.506188" xlink:href="#m7ecdf097ac" y="57.000771"/>
     <use style="fill:#ff7f0e;stroke:#ff7f0e;stroke-linejoin:bevel;" x="151.063866" xlink:href="#m7ecdf097ac" y="55.921699"/>
     <use style="fill:#ff7f0e;stroke:#ff7f0e;stroke-linejoin:bevel;" x="153.621543" xlink:href="#m7ecdf097ac" y="62.1759"/>
     <use style="fill:#ff7f0e;stroke:#ff7f0e;stroke-linejoin:bevel;" x="156.179221" xlink:href="#m7ecdf097ac" y="62.259913"/>
     <use style="fill:#ff7f0e;stroke:#ff7f0e;stroke-linejoin:bevel;" x="158.736898" xlink:href="#m7ecdf097ac" y="61.277589"/>
     <use style="fill:#ff7f0e;stroke:#ff7f0e;stroke-linejoin:bevel;" x="161.294576" xlink:href="#m7ecdf097ac" y="62.160781"/>
     <use style="fill:#ff7f0e;stroke:#ff7f0e;stroke-linejoin:bevel;" x="163.852254" xlink:href="#m7ecdf097ac" y="61.426335"/>
     <use style="fill:#ff7f0e;stroke:#ff7f0e;stroke-linejoin:bevel;" x="166.409931" xlink:href="#m7ecdf097ac" y="61.284053"/>
     <use style="fill:#ff7f0e;stroke:#ff7f0e;stroke-linejoin:bevel;" x="168.967609" xlink:href="#m7ecdf097ac" y="61.753468"/>
     <use style="fill:#ff7f0e;stroke:#ff7f0e;stroke-linejoin:bevel;" x="171.525286" xlink:href="#m7ecdf097ac" y="60.951433"/>
     <use style="fill:#ff7f0e;stroke:#ff7f0e;stroke-linejoin:bevel;" x="174.082964" xlink:href="#m7ecdf097ac" y="65.140384"/>
     <use style="fill:#ff7f0e;stroke:#ff7f0e;stroke-linejoin:bevel;" x="176.640642" xlink:href="#m7ecdf097ac" y="65.197383"/>
     <use style="fill:#ff7f0e;stroke:#ff7f0e;stroke-linejoin:bevel;" x="179.198319" xlink:href="#m7ecdf097ac" y="65.103594"/>
     <use style="fill:#ff7f0e;stroke:#ff7f0e;stroke-linejoin:bevel;" x="181.755997" xlink:href="#m7ecdf097ac" y="64.832017"/>
     <use style="fill:#ff7f0e;stroke:#ff7f0e;stroke-linejoin:bevel;" x="184.313675" xlink:href="#m7ecdf097ac" y="64.98339"/>
     <use style="fill:#ff7f0e;stroke:#ff7f0e;stroke-linejoin:bevel;" x="186.871352" xlink:href="#m7ecdf097ac" y="69.808343"/>
     <use style="fill:#ff7f0e;stroke:#ff7f0e;stroke-linejoin:bevel;" x="189.42903" xlink:href="#m7ecdf097ac" y="69.593153"/>
     <use style="fill:#ff7f0e;stroke:#ff7f0e;stroke-linejoin:bevel;" x="191.986707" xlink:href="#m7ecdf097ac" y="70.361113"/>
     <use style="fill:#ff7f0e;stroke:#ff7f0e;stroke-linejoin:bevel;" x="194.544385" xlink:href="#m7ecdf097ac" y="71.020077"/>
     <use style="fill:#ff7f0e;stroke:#ff7f0e;stroke-linejoin:bevel;" x="197.102063" xlink:href="#m7ecdf097ac" y="77.462161"/>
     <use style="fill:#ff7f0e;stroke:#ff7f0e;stroke-linejoin:bevel;" x="199.65974" xlink:href="#m7ecdf097ac" y="78.599323"/>
     <use style="fill:#ff7f0e;stroke:#ff7f0e;stroke-linejoin:bevel;" x="202.217418" xlink:href="#m7ecdf097ac" y="78.230166"/>
     <use style="fill:#ff7f0e;stroke:#ff7f0e;stroke-linejoin:bevel;" x="204.775095" xlink:href="#m7ecdf097ac" y="80.701347"/>
     <use style="fill:#ff7f0e;stroke:#ff7f0e;stroke-linejoin:bevel;" x="207.332773" xlink:href="#m7ecdf097ac" y="82.84649"/>
     <use style="fill:#ff7f0e;stroke:#ff7f0e;stroke-linejoin:bevel;" x="209.890451" xlink:href="#m7ecdf097ac" y="84.541366"/>
     <use style="fill:#ff7f0e;stroke:#ff7f0e;stroke-linejoin:bevel;" x="212.448128" xlink:href="#m7ecdf097ac" y="86.436061"/>
     <use style="fill:#ff7f0e;stroke:#ff7f0e;stroke-linejoin:bevel;" x="215.005806" xlink:href="#m7ecdf097ac" y="89.528202"/>
     <use style="fill:#ff7f0e;stroke:#ff7f0e;stroke-linejoin:bevel;" x="217.563484" xlink:href="#m7ecdf097ac" y="90.275361"/>
     <use style="fill:#ff7f0e;stroke:#ff7f0e;stroke-linejoin:bevel;" x="220.121161" xlink:href="#m7ecdf097ac" y="109.996349"/>
     <use style="fill:#ff7f0e;stroke:#ff7f0e;stroke-linejoin:bevel;" x="222.678839" xlink:href="#m7ecdf097ac" y="112.627458"/>
     <use style="fill:#ff7f0e;stroke:#ff7f0e;stroke-linejoin:bevel;" x="225.236516" xlink:href="#m7ecdf097ac" y="130.352842"/>
     <use style="fill:#ff7f0e;stroke:#ff7f0e;stroke-linejoin:bevel;" x="227.794194" xlink:href="#m7ecdf097ac" y="173.841347"/>
     <use style="fill:#ff7f0e;stroke:#ff7f0e;stroke-linejoin:bevel;" x="230.351872" xlink:href="#m7ecdf097ac" y="183.7601"/>
     <use style="fill:#ff7f0e;stroke:#ff7f0e;stroke-linejoin:bevel;" x="232.909549" xlink:href="#m7ecdf097ac" y="242.116364"/>
     <use style="fill:#ff7f0e;stroke:#ff7f0e;stroke-linejoin:bevel;" x="235.467227" xlink:href="#m7ecdf097ac" y="242.111274"/>
     <use style="fill:#ff7f0e;stroke:#ff7f0e;stroke-linejoin:bevel;" x="238.024905" xlink:href="#m7ecdf097ac" y="238.959878"/>
     <use style="fill:#ff7f0e;stroke:#ff7f0e;stroke-linejoin:bevel;" x="240.582582" xlink:href="#m7ecdf097ac" y="238.629578"/>
     <use style="fill:#ff7f0e;stroke:#ff7f0e;stroke-linejoin:bevel;" x="243.14026" xlink:href="#m7ecdf097ac" y="238.083698"/>
     <use style="fill:#ff7f0e;stroke:#ff7f0e;stroke-linejoin:bevel;" x="245.697937" xlink:href="#m7ecdf097ac" y="234.538073"/>
     <use style="fill:#ff7f0e;stroke:#ff7f0e;stroke-linejoin:bevel;" x="248.255615" xlink:href="#m7ecdf097ac" y="228.892"/>
     <use style="fill:#ff7f0e;stroke:#ff7f0e;stroke-linejoin:bevel;" x="250.813293" xlink:href="#m7ecdf097ac" y="226.464469"/>
     <use style="fill:#ff7f0e;stroke:#ff7f0e;stroke-linejoin:bevel;" x="253.37097" xlink:href="#m7ecdf097ac" y="224.772525"/>
     <use style="fill:#ff7f0e;stroke:#ff7f0e;stroke-linejoin:bevel;" x="255.928648" xlink:href="#m7ecdf097ac" y="222.022589"/>
     <use style="fill:#ff7f0e;stroke:#ff7f0e;stroke-linejoin:bevel;" x="258.486325" xlink:href="#m7ecdf097ac" y="220.506899"/>
     <use style="fill:#ff7f0e;stroke:#ff7f0e;stroke-linejoin:bevel;" x="261.044003" xlink:href="#m7ecdf097ac" y="219.896727"/>
     <use style="fill:#ff7f0e;stroke:#ff7f0e;stroke-linejoin:bevel;" x="263.601681" xlink:href="#m7ecdf097ac" y="218.922259"/>
     <use style="fill:#ff7f0e;stroke:#ff7f0e;stroke-linejoin:bevel;" x="266.159358" xlink:href="#m7ecdf097ac" y="219.626656"/>
     <use style="fill:#ff7f0e;stroke:#ff7f0e;stroke-linejoin:bevel;" x="268.717036" xlink:href="#m7ecdf097ac" y="218.904828"/>
     <use style="fill:#ff7f0e;stroke:#ff7f0e;stroke-linejoin:bevel;" x="271.274714" xlink:href="#m7ecdf097ac" y="217.339339"/>
     <use style="fill:#ff7f0e;stroke:#ff7f0e;stroke-linejoin:bevel;" x="273.832391" xlink:href="#m7ecdf097ac" y="215.188852"/>
     <use style="fill:#ff7f0e;stroke:#ff7f0e;stroke-linejoin:bevel;" x="276.390069" xlink:href="#m7ecdf097ac" y="214.080197"/>
     <use style="fill:#ff7f0e;stroke:#ff7f0e;stroke-linejoin:bevel;" x="278.947746" xlink:href="#m7ecdf097ac" y="210.956808"/>
     <use style="fill:#ff7f0e;stroke:#ff7f0e;stroke-linejoin:bevel;" x="281.505424" xlink:href="#m7ecdf097ac" y="200.416529"/>
     <use style="fill:#ff7f0e;stroke:#ff7f0e;stroke-linejoin:bevel;" x="284.063102" xlink:href="#m7ecdf097ac" y="196.342759"/>
     <use style="fill:#ff7f0e;stroke:#ff7f0e;stroke-linejoin:bevel;" x="286.620779" xlink:href="#m7ecdf097ac" y="188.786097"/>
     <use style="fill:#ff7f0e;stroke:#ff7f0e;stroke-linejoin:bevel;" x="289.178457" xlink:href="#m7ecdf097ac" y="183.32464"/>
     <use style="fill:#ff7f0e;stroke:#ff7f0e;stroke-linejoin:bevel;" x="291.736134" xlink:href="#m7ecdf097ac" y="169.595925"/>
     <use style="fill:#ff7f0e;stroke:#ff7f0e;stroke-linejoin:bevel;" x="294.293812" xlink:href="#m7ecdf097ac" y="170.420669"/>
     <use style="fill:#ff7f0e;stroke:#ff7f0e;stroke-linejoin:bevel;" x="296.85149" xlink:href="#m7ecdf097ac" y="154.30949"/>
     <use style="fill:#ff7f0e;stroke:#ff7f0e;stroke-linejoin:bevel;" x="299.409167" xlink:href="#m7ecdf097ac" y="148.612971"/>
     <use style="fill:#ff7f0e;stroke:#ff7f0e;stroke-linejoin:bevel;" x="301.966845" xlink:href="#m7ecdf097ac" y="138.334276"/>
     <use style="fill:#ff7f0e;stroke:#ff7f0e;stroke-linejoin:bevel;" x="304.524523" xlink:href="#m7ecdf097ac" y="138.936405"/>
     <use style="fill:#ff7f0e;stroke:#ff7f0e;stroke-linejoin:bevel;" x="307.0822" xlink:href="#m7ecdf097ac" y="118.06094"/>
     <use style="fill:#ff7f0e;stroke:#ff7f0e;stroke-linejoin:bevel;" x="309.639878" xlink:href="#m7ecdf097ac" y="133.580099"/>
     <use style="fill:#ff7f0e;stroke:#ff7f0e;stroke-linejoin:bevel;" x="312.197555" xlink:href="#m7ecdf097ac" y="129.209031"/>
     <use style="fill:#ff7f0e;stroke:#ff7f0e;stroke-linejoin:bevel;" x="314.755233" xlink:href="#m7ecdf097ac" y="121.535621"/>
     <use style="fill:#ff7f0e;stroke:#ff7f0e;stroke-linejoin:bevel;" x="317.312911" xlink:href="#m7ecdf097ac" y="117.610775"/>
     <use style="fill:#ff7f0e;stroke:#ff7f0e;stroke-linejoin:bevel;" x="319.870588" xlink:href="#m7ecdf097ac" y="117.583335"/>
     <use style="fill:#ff7f0e;stroke:#ff7f0e;stroke-linejoin:bevel;" x="322.428266" xlink:href="#m7ecdf097ac" y="117.733209"/>
     <use style="fill:#ff7f0e;stroke:#ff7f0e;stroke-linejoin:bevel;" x="324.985943" xlink:href="#m7ecdf097ac" y="115.39387"/>
     <use style="fill:#ff7f0e;stroke:#ff7f0e;stroke-linejoin:bevel;" x="327.543621" xlink:href="#m7ecdf097ac" y="110.699809"/>
     <use style="fill:#ff7f0e;stroke:#ff7f0e;stroke-linejoin:bevel;" x="330.101299" xlink:href="#m7ecdf097ac" y="103.653349"/>
     <use style="fill:#ff7f0e;stroke:#ff7f0e;stroke-linejoin:bevel;" x="332.658976" xlink:href="#m7ecdf097ac" y="102.232082"/>
     <use style="fill:#ff7f0e;stroke:#ff7f0e;stroke-linejoin:bevel;" x="335.216654" xlink:href="#m7ecdf097ac" y="99.830117"/>
     <use style="fill:#ff7f0e;stroke:#ff7f0e;stroke-linejoin:bevel;" x="337.774332" xlink:href="#m7ecdf097ac" y="99.006358"/>
     <use style="fill:#ff7f0e;stroke:#ff7f0e;stroke-linejoin:bevel;" x="340.332009" xlink:href="#m7ecdf097ac" y="96.960339"/>
     <use style="fill:#ff7f0e;stroke:#ff7f0e;stroke-linejoin:bevel;" x="342.889687" xlink:href="#m7ecdf097ac" y="93.014946"/>
     <use style="fill:#ff7f0e;stroke:#ff7f0e;stroke-linejoin:bevel;" x="345.447364" xlink:href="#m7ecdf097ac" y="89.289495"/>
     <use style="fill:#ff7f0e;stroke:#ff7f0e;stroke-linejoin:bevel;" x="348.005042" xlink:href="#m7ecdf097ac" y="86.097515"/>
     <use style="fill:#ff7f0e;stroke:#ff7f0e;stroke-linejoin:bevel;" x="350.56272" xlink:href="#m7ecdf097ac" y="83.891007"/>
     <use style="fill:#ff7f0e;stroke:#ff7f0e;stroke-linejoin:bevel;" x="353.120397" xlink:href="#m7ecdf097ac" y="80.638522"/>
     <use style="fill:#ff7f0e;stroke:#ff7f0e;stroke-linejoin:bevel;" x="355.678075" xlink:href="#m7ecdf097ac" y="78.79463"/>
     <use style="fill:#ff7f0e;stroke:#ff7f0e;stroke-linejoin:bevel;" x="358.235752" xlink:href="#m7ecdf097ac" y="78.446274"/>
     <use style="fill:#ff7f0e;stroke:#ff7f0e;stroke-linejoin:bevel;" x="360.79343" xlink:href="#m7ecdf097ac" y="76.467907"/>
     <use style="fill:#ff7f0e;stroke:#ff7f0e;stroke-linejoin:bevel;" x="363.351108" xlink:href="#m7ecdf097ac" y="73.378815"/>
     <use style="fill:#ff7f0e;stroke:#ff7f0e;stroke-linejoin:bevel;" x="365.908785" xlink:href="#m7ecdf097ac" y="72.165865"/>
     <use style="fill:#ff7f0e;stroke:#ff7f0e;stroke-linejoin:bevel;" x="368.466463" xlink:href="#m7ecdf097ac" y="70.469048"/>
     <use style="fill:#ff7f0e;stroke:#ff7f0e;stroke-linejoin:bevel;" x="371.024141" xlink:href="#m7ecdf097ac" y="69.08141"/>
     <use style="fill:#ff7f0e;stroke:#ff7f0e;stroke-linejoin:bevel;" x="373.581818" xlink:href="#m7ecdf097ac" y="67.354201"/>
    </g>
   </g>
   <g id="line2d_35">
    <path clip-path="url(#pcf4fa9585e)" d="M 69.218182 44.443636 
L 71.775859 44.443636 
L 74.333537 44.747359 
L 76.891215 44.747359 
L 79.448892 45.684456 
L 82.00657 45.684456 
L 84.564248 45.492365 
L 87.121925 45.492365 
L 89.679603 46.14359 
L 92.23728 46.075181 
L 94.794958 46.075181 
L 97.352636 46.322018 
L 99.910313 49.788475 
L 102.467991 49.788475 
L 105.025668 49.759678 
L 107.583346 49.662585 
L 110.141024 49.662585 
L 112.698701 51.91697 
L 115.256379 51.686619 
L 117.814057 53.786869 
L 120.371734 52.834533 
L 122.929412 52.834533 
L 125.487089 52.04854 
L 128.044767 51.770751 
L 130.602445 51.905205 
L 133.160122 51.865048 
L 135.7178 54.278926 
L 138.275477 55.326185 
L 140.833155 54.799269 
L 143.390833 53.715635 
L 145.94851 54.691364 
L 148.506188 54.462632 
L 151.063866 54.251373 
L 153.621543 60.808409 
L 156.179221 60.258652 
L 158.736898 59.150692 
L 161.294576 60.365783 
L 163.852254 58.73924 
L 166.409931 58.209922 
L 168.967609 58.957922 
L 171.525286 57.991086 
L 174.082964 62.290753 
L 176.640642 62.348969 
L 179.198319 62.933103 
L 181.755997 61.348781 
L 184.313675 60.560799 
L 186.871352 65.725102 
L 189.42903 63.942602 
L 191.986707 64.744192 
L 194.544385 65.890448 
L 197.102063 73.388494 
L 199.65974 75.369086 
L 202.217418 74.972262 
L 204.775095 77.905515 
L 207.332773 81.395992 
L 209.890451 81.910699 
L 212.448128 83.068688 
L 215.005806 86.30402 
L 217.563484 87.841873 
L 220.121161 106.461131 
L 222.678839 109.291238 
L 225.236516 130.705621 
L 227.794194 172.393725 
L 230.351872 181.073847 
L 232.909549 239.84068 
L 235.467227 239.789868 
L 238.024905 236.802592 
L 240.582582 236.645715 
L 243.14026 235.00502 
L 245.697937 230.612489 
L 248.255615 224.385012 
L 250.813293 222.74387 
L 253.37097 220.904131 
L 255.928648 217.410501 
L 258.486325 216.072822 
L 261.044003 215.261233 
L 263.601681 215.269547 
L 266.159358 215.231482 
L 268.717036 213.788976 
L 271.274714 211.942699 
L 273.832391 206.63182 
L 276.390069 205.025324 
L 278.947746 202.851145 
L 281.505424 192.499786 
L 284.063102 197.269221 
L 286.620779 189.390196 
L 289.178457 186.569212 
L 291.736134 127.413596 
L 294.293812 116.702458 
L 296.85149 86.46276 
L 299.409167 91.984458 
L 301.966845 45.081516 
L 304.524523 75.801795 
L 307.0822 115.688814 
L 309.639878 132.504547 
L 312.197555 128.911016 
L 314.755233 119.012916 
L 317.312911 116.531683 
L 319.870588 117.559788 
L 322.428266 117.272125 
L 324.985943 116.123703 
L 327.543621 111.463926 
L 330.101299 103.635364 
L 332.658976 101.754012 
L 335.216654 99.339695 
L 337.774332 98.18319 
L 340.332009 96.963695 
L 342.889687 92.459746 
L 345.447364 89.465752 
L 348.005042 88.051599 
L 350.56272 85.659631 
L 353.120397 82.385912 
L 355.678075 78.188422 
L 358.235752 78.854749 
L 360.79343 76.340405 
L 363.351108 73.976844 
L 365.908785 72.394009 
L 368.466463 54.766155 
L 371.024141 67.174253 
L 373.581818 66.287452 
" style="fill:none;stroke:#2ca02c;stroke-dasharray:1.5,2.475;stroke-dashoffset:0;stroke-width:1.5;"/>
    <defs>
     <path d="M -0 4.242641 
L 4.242641 0 
L 0 -4.242641 
L -4.242641 -0 
z
" id="mbbba6303b7" style="stroke:#2ca02c;stroke-linejoin:miter;"/>
    </defs>
    <g clip-path="url(#pcf4fa9585e)">
     <use style="fill:#2ca02c;stroke:#2ca02c;stroke-linejoin:miter;" x="69.218182" xlink:href="#mbbba6303b7" y="44.443636"/>
     <use style="fill:#2ca02c;stroke:#2ca02c;stroke-linejoin:miter;" x="71.775859" xlink:href="#mbbba6303b7" y="44.443636"/>
     <use style="fill:#2ca02c;stroke:#2ca02c;stroke-linejoin:miter;" x="74.333537" xlink:href="#mbbba6303b7" y="44.747359"/>
     <use style="fill:#2ca02c;stroke:#2ca02c;stroke-linejoin:miter;" x="76.891215" xlink:href="#mbbba6303b7" y="44.747359"/>
     <use style="fill:#2ca02c;stroke:#2ca02c;stroke-linejoin:miter;" x="79.448892" xlink:href="#mbbba6303b7" y="45.684456"/>
     <use style="fill:#2ca02c;stroke:#2ca02c;stroke-linejoin:miter;" x="82.00657" xlink:href="#mbbba6303b7" y="45.684456"/>
     <use style="fill:#2ca02c;stroke:#2ca02c;stroke-linejoin:miter;" x="84.564248" xlink:href="#mbbba6303b7" y="45.492365"/>
     <use style="fill:#2ca02c;stroke:#2ca02c;stroke-linejoin:miter;" x="87.121925" xlink:href="#mbbba6303b7" y="45.492365"/>
     <use style="fill:#2ca02c;stroke:#2ca02c;stroke-linejoin:miter;" x="89.679603" xlink:href="#mbbba6303b7" y="46.14359"/>
     <use style="fill:#2ca02c;stroke:#2ca02c;stroke-linejoin:miter;" x="92.23728" xlink:href="#mbbba6303b7" y="46.075181"/>
     <use style="fill:#2ca02c;stroke:#2ca02c;stroke-linejoin:miter;" x="94.794958" xlink:href="#mbbba6303b7" y="46.075181"/>
     <use style="fill:#2ca02c;stroke:#2ca02c;stroke-linejoin:miter;" x="97.352636" xlink:href="#mbbba6303b7" y="46.322018"/>
     <use style="fill:#2ca02c;stroke:#2ca02c;stroke-linejoin:miter;" x="99.910313" xlink:href="#mbbba6303b7" y="49.788475"/>
     <use style="fill:#2ca02c;stroke:#2ca02c;stroke-linejoin:miter;" x="102.467991" xlink:href="#mbbba6303b7" y="49.788475"/>
     <use style="fill:#2ca02c;stroke:#2ca02c;stroke-linejoin:miter;" x="105.025668" xlink:href="#mbbba6303b7" y="49.759678"/>
     <use style="fill:#2ca02c;stroke:#2ca02c;stroke-linejoin:miter;" x="107.583346" xlink:href="#mbbba6303b7" y="49.662585"/>
     <use style="fill:#2ca02c;stroke:#2ca02c;stroke-linejoin:miter;" x="110.141024" xlink:href="#mbbba6303b7" y="49.662585"/>
     <use style="fill:#2ca02c;stroke:#2ca02c;stroke-linejoin:miter;" x="112.698701" xlink:href="#mbbba6303b7" y="51.91697"/>
     <use style="fill:#2ca02c;stroke:#2ca02c;stroke-linejoin:miter;" x="115.256379" xlink:href="#mbbba6303b7" y="51.686619"/>
     <use style="fill:#2ca02c;stroke:#2ca02c;stroke-linejoin:miter;" x="117.814057" xlink:href="#mbbba6303b7" y="53.786869"/>
     <use style="fill:#2ca02c;stroke:#2ca02c;stroke-linejoin:miter;" x="120.371734" xlink:href="#mbbba6303b7" y="52.834533"/>
     <use style="fill:#2ca02c;stroke:#2ca02c;stroke-linejoin:miter;" x="122.929412" xlink:href="#mbbba6303b7" y="52.834533"/>
     <use style="fill:#2ca02c;stroke:#2ca02c;stroke-linejoin:miter;" x="125.487089" xlink:href="#mbbba6303b7" y="52.04854"/>
     <use style="fill:#2ca02c;stroke:#2ca02c;stroke-linejoin:miter;" x="128.044767" xlink:href="#mbbba6303b7" y="51.770751"/>
     <use style="fill:#2ca02c;stroke:#2ca02c;stroke-linejoin:miter;" x="130.602445" xlink:href="#mbbba6303b7" y="51.905205"/>
     <use style="fill:#2ca02c;stroke:#2ca02c;stroke-linejoin:miter;" x="133.160122" xlink:href="#mbbba6303b7" y="51.865048"/>
     <use style="fill:#2ca02c;stroke:#2ca02c;stroke-linejoin:miter;" x="135.7178" xlink:href="#mbbba6303b7" y="54.278926"/>
     <use style="fill:#2ca02c;stroke:#2ca02c;stroke-linejoin:miter;" x="138.275477" xlink:href="#mbbba6303b7" y="55.326185"/>
     <use style="fill:#2ca02c;stroke:#2ca02c;stroke-linejoin:miter;" x="140.833155" xlink:href="#mbbba6303b7" y="54.799269"/>
     <use style="fill:#2ca02c;stroke:#2ca02c;stroke-linejoin:miter;" x="143.390833" xlink:href="#mbbba6303b7" y="53.715635"/>
     <use style="fill:#2ca02c;stroke:#2ca02c;stroke-linejoin:miter;" x="145.94851" xlink:href="#mbbba6303b7" y="54.691364"/>
     <use style="fill:#2ca02c;stroke:#2ca02c;stroke-linejoin:miter;" x="148.506188" xlink:href="#mbbba6303b7" y="54.462632"/>
     <use style="fill:#2ca02c;stroke:#2ca02c;stroke-linejoin:miter;" x="151.063866" xlink:href="#mbbba6303b7" y="54.251373"/>
     <use style="fill:#2ca02c;stroke:#2ca02c;stroke-linejoin:miter;" x="153.621543" xlink:href="#mbbba6303b7" y="60.808409"/>
     <use style="fill:#2ca02c;stroke:#2ca02c;stroke-linejoin:miter;" x="156.179221" xlink:href="#mbbba6303b7" y="60.258652"/>
     <use style="fill:#2ca02c;stroke:#2ca02c;stroke-linejoin:miter;" x="158.736898" xlink:href="#mbbba6303b7" y="59.150692"/>
     <use style="fill:#2ca02c;stroke:#2ca02c;stroke-linejoin:miter;" x="161.294576" xlink:href="#mbbba6303b7" y="60.365783"/>
     <use style="fill:#2ca02c;stroke:#2ca02c;stroke-linejoin:miter;" x="163.852254" xlink:href="#mbbba6303b7" y="58.73924"/>
     <use style="fill:#2ca02c;stroke:#2ca02c;stroke-linejoin:miter;" x="166.409931" xlink:href="#mbbba6303b7" y="58.209922"/>
     <use style="fill:#2ca02c;stroke:#2ca02c;stroke-linejoin:miter;" x="168.967609" xlink:href="#mbbba6303b7" y="58.957922"/>
     <use style="fill:#2ca02c;stroke:#2ca02c;stroke-linejoin:miter;" x="171.525286" xlink:href="#mbbba6303b7" y="57.991086"/>
     <use style="fill:#2ca02c;stroke:#2ca02c;stroke-linejoin:miter;" x="174.082964" xlink:href="#mbbba6303b7" y="62.290753"/>
     <use style="fill:#2ca02c;stroke:#2ca02c;stroke-linejoin:miter;" x="176.640642" xlink:href="#mbbba6303b7" y="62.348969"/>
     <use style="fill:#2ca02c;stroke:#2ca02c;stroke-linejoin:miter;" x="179.198319" xlink:href="#mbbba6303b7" y="62.933103"/>
     <use style="fill:#2ca02c;stroke:#2ca02c;stroke-linejoin:miter;" x="181.755997" xlink:href="#mbbba6303b7" y="61.348781"/>
     <use style="fill:#2ca02c;stroke:#2ca02c;stroke-linejoin:miter;" x="184.313675" xlink:href="#mbbba6303b7" y="60.560799"/>
     <use style="fill:#2ca02c;stroke:#2ca02c;stroke-linejoin:miter;" x="186.871352" xlink:href="#mbbba6303b7" y="65.725102"/>
     <use style="fill:#2ca02c;stroke:#2ca02c;stroke-linejoin:miter;" x="189.42903" xlink:href="#mbbba6303b7" y="63.942602"/>
     <use style="fill:#2ca02c;stroke:#2ca02c;stroke-linejoin:miter;" x="191.986707" xlink:href="#mbbba6303b7" y="64.744192"/>
     <use style="fill:#2ca02c;stroke:#2ca02c;stroke-linejoin:miter;" x="194.544385" xlink:href="#mbbba6303b7" y="65.890448"/>
     <use style="fill:#2ca02c;stroke:#2ca02c;stroke-linejoin:miter;" x="197.102063" xlink:href="#mbbba6303b7" y="73.388494"/>
     <use style="fill:#2ca02c;stroke:#2ca02c;stroke-linejoin:miter;" x="199.65974" xlink:href="#mbbba6303b7" y="75.369086"/>
     <use style="fill:#2ca02c;stroke:#2ca02c;stroke-linejoin:miter;" x="202.217418" xlink:href="#mbbba6303b7" y="74.972262"/>
     <use style="fill:#2ca02c;stroke:#2ca02c;stroke-linejoin:miter;" x="204.775095" xlink:href="#mbbba6303b7" y="77.905515"/>
     <use style="fill:#2ca02c;stroke:#2ca02c;stroke-linejoin:miter;" x="207.332773" xlink:href="#mbbba6303b7" y="81.395992"/>
     <use style="fill:#2ca02c;stroke:#2ca02c;stroke-linejoin:miter;" x="209.890451" xlink:href="#mbbba6303b7" y="81.910699"/>
     <use style="fill:#2ca02c;stroke:#2ca02c;stroke-linejoin:miter;" x="212.448128" xlink:href="#mbbba6303b7" y="83.068688"/>
     <use style="fill:#2ca02c;stroke:#2ca02c;stroke-linejoin:miter;" x="215.005806" xlink:href="#mbbba6303b7" y="86.30402"/>
     <use style="fill:#2ca02c;stroke:#2ca02c;stroke-linejoin:miter;" x="217.563484" xlink:href="#mbbba6303b7" y="87.841873"/>
     <use style="fill:#2ca02c;stroke:#2ca02c;stroke-linejoin:miter;" x="220.121161" xlink:href="#mbbba6303b7" y="106.461131"/>
     <use style="fill:#2ca02c;stroke:#2ca02c;stroke-linejoin:miter;" x="222.678839" xlink:href="#mbbba6303b7" y="109.291238"/>
     <use style="fill:#2ca02c;stroke:#2ca02c;stroke-linejoin:miter;" x="225.236516" xlink:href="#mbbba6303b7" y="130.705621"/>
     <use style="fill:#2ca02c;stroke:#2ca02c;stroke-linejoin:miter;" x="227.794194" xlink:href="#mbbba6303b7" y="172.393725"/>
     <use style="fill:#2ca02c;stroke:#2ca02c;stroke-linejoin:miter;" x="230.351872" xlink:href="#mbbba6303b7" y="181.073847"/>
     <use style="fill:#2ca02c;stroke:#2ca02c;stroke-linejoin:miter;" x="232.909549" xlink:href="#mbbba6303b7" y="239.84068"/>
     <use style="fill:#2ca02c;stroke:#2ca02c;stroke-linejoin:miter;" x="235.467227" xlink:href="#mbbba6303b7" y="239.789868"/>
     <use style="fill:#2ca02c;stroke:#2ca02c;stroke-linejoin:miter;" x="238.024905" xlink:href="#mbbba6303b7" y="236.802592"/>
     <use style="fill:#2ca02c;stroke:#2ca02c;stroke-linejoin:miter;" x="240.582582" xlink:href="#mbbba6303b7" y="236.645715"/>
     <use style="fill:#2ca02c;stroke:#2ca02c;stroke-linejoin:miter;" x="243.14026" xlink:href="#mbbba6303b7" y="235.00502"/>
     <use style="fill:#2ca02c;stroke:#2ca02c;stroke-linejoin:miter;" x="245.697937" xlink:href="#mbbba6303b7" y="230.612489"/>
     <use style="fill:#2ca02c;stroke:#2ca02c;stroke-linejoin:miter;" x="248.255615" xlink:href="#mbbba6303b7" y="224.385012"/>
     <use style="fill:#2ca02c;stroke:#2ca02c;stroke-linejoin:miter;" x="250.813293" xlink:href="#mbbba6303b7" y="222.74387"/>
     <use style="fill:#2ca02c;stroke:#2ca02c;stroke-linejoin:miter;" x="253.37097" xlink:href="#mbbba6303b7" y="220.904131"/>
     <use style="fill:#2ca02c;stroke:#2ca02c;stroke-linejoin:miter;" x="255.928648" xlink:href="#mbbba6303b7" y="217.410501"/>
     <use style="fill:#2ca02c;stroke:#2ca02c;stroke-linejoin:miter;" x="258.486325" xlink:href="#mbbba6303b7" y="216.072822"/>
     <use style="fill:#2ca02c;stroke:#2ca02c;stroke-linejoin:miter;" x="261.044003" xlink:href="#mbbba6303b7" y="215.261233"/>
     <use style="fill:#2ca02c;stroke:#2ca02c;stroke-linejoin:miter;" x="263.601681" xlink:href="#mbbba6303b7" y="215.269547"/>
     <use style="fill:#2ca02c;stroke:#2ca02c;stroke-linejoin:miter;" x="266.159358" xlink:href="#mbbba6303b7" y="215.231482"/>
     <use style="fill:#2ca02c;stroke:#2ca02c;stroke-linejoin:miter;" x="268.717036" xlink:href="#mbbba6303b7" y="213.788976"/>
     <use style="fill:#2ca02c;stroke:#2ca02c;stroke-linejoin:miter;" x="271.274714" xlink:href="#mbbba6303b7" y="211.942699"/>
     <use style="fill:#2ca02c;stroke:#2ca02c;stroke-linejoin:miter;" x="273.832391" xlink:href="#mbbba6303b7" y="206.63182"/>
     <use style="fill:#2ca02c;stroke:#2ca02c;stroke-linejoin:miter;" x="276.390069" xlink:href="#mbbba6303b7" y="205.025324"/>
     <use style="fill:#2ca02c;stroke:#2ca02c;stroke-linejoin:miter;" x="278.947746" xlink:href="#mbbba6303b7" y="202.851145"/>
     <use style="fill:#2ca02c;stroke:#2ca02c;stroke-linejoin:miter;" x="281.505424" xlink:href="#mbbba6303b7" y="192.499786"/>
     <use style="fill:#2ca02c;stroke:#2ca02c;stroke-linejoin:miter;" x="284.063102" xlink:href="#mbbba6303b7" y="197.269221"/>
     <use style="fill:#2ca02c;stroke:#2ca02c;stroke-linejoin:miter;" x="286.620779" xlink:href="#mbbba6303b7" y="189.390196"/>
     <use style="fill:#2ca02c;stroke:#2ca02c;stroke-linejoin:miter;" x="289.178457" xlink:href="#mbbba6303b7" y="186.569212"/>
     <use style="fill:#2ca02c;stroke:#2ca02c;stroke-linejoin:miter;" x="291.736134" xlink:href="#mbbba6303b7" y="127.413596"/>
     <use style="fill:#2ca02c;stroke:#2ca02c;stroke-linejoin:miter;" x="294.293812" xlink:href="#mbbba6303b7" y="116.702458"/>
     <use style="fill:#2ca02c;stroke:#2ca02c;stroke-linejoin:miter;" x="296.85149" xlink:href="#mbbba6303b7" y="86.46276"/>
     <use style="fill:#2ca02c;stroke:#2ca02c;stroke-linejoin:miter;" x="299.409167" xlink:href="#mbbba6303b7" y="91.984458"/>
     <use style="fill:#2ca02c;stroke:#2ca02c;stroke-linejoin:miter;" x="301.966845" xlink:href="#mbbba6303b7" y="45.081516"/>
     <use style="fill:#2ca02c;stroke:#2ca02c;stroke-linejoin:miter;" x="304.524523" xlink:href="#mbbba6303b7" y="75.801795"/>
     <use style="fill:#2ca02c;stroke:#2ca02c;stroke-linejoin:miter;" x="307.0822" xlink:href="#mbbba6303b7" y="115.688814"/>
     <use style="fill:#2ca02c;stroke:#2ca02c;stroke-linejoin:miter;" x="309.639878" xlink:href="#mbbba6303b7" y="132.504547"/>
     <use style="fill:#2ca02c;stroke:#2ca02c;stroke-linejoin:miter;" x="312.197555" xlink:href="#mbbba6303b7" y="128.911016"/>
     <use style="fill:#2ca02c;stroke:#2ca02c;stroke-linejoin:miter;" x="314.755233" xlink:href="#mbbba6303b7" y="119.012916"/>
     <use style="fill:#2ca02c;stroke:#2ca02c;stroke-linejoin:miter;" x="317.312911" xlink:href="#mbbba6303b7" y="116.531683"/>
     <use style="fill:#2ca02c;stroke:#2ca02c;stroke-linejoin:miter;" x="319.870588" xlink:href="#mbbba6303b7" y="117.559788"/>
     <use style="fill:#2ca02c;stroke:#2ca02c;stroke-linejoin:miter;" x="322.428266" xlink:href="#mbbba6303b7" y="117.272125"/>
     <use style="fill:#2ca02c;stroke:#2ca02c;stroke-linejoin:miter;" x="324.985943" xlink:href="#mbbba6303b7" y="116.123703"/>
     <use style="fill:#2ca02c;stroke:#2ca02c;stroke-linejoin:miter;" x="327.543621" xlink:href="#mbbba6303b7" y="111.463926"/>
     <use style="fill:#2ca02c;stroke:#2ca02c;stroke-linejoin:miter;" x="330.101299" xlink:href="#mbbba6303b7" y="103.635364"/>
     <use style="fill:#2ca02c;stroke:#2ca02c;stroke-linejoin:miter;" x="332.658976" xlink:href="#mbbba6303b7" y="101.754012"/>
     <use style="fill:#2ca02c;stroke:#2ca02c;stroke-linejoin:miter;" x="335.216654" xlink:href="#mbbba6303b7" y="99.339695"/>
     <use style="fill:#2ca02c;stroke:#2ca02c;stroke-linejoin:miter;" x="337.774332" xlink:href="#mbbba6303b7" y="98.18319"/>
     <use style="fill:#2ca02c;stroke:#2ca02c;stroke-linejoin:miter;" x="340.332009" xlink:href="#mbbba6303b7" y="96.963695"/>
     <use style="fill:#2ca02c;stroke:#2ca02c;stroke-linejoin:miter;" x="342.889687" xlink:href="#mbbba6303b7" y="92.459746"/>
     <use style="fill:#2ca02c;stroke:#2ca02c;stroke-linejoin:miter;" x="345.447364" xlink:href="#mbbba6303b7" y="89.465752"/>
     <use style="fill:#2ca02c;stroke:#2ca02c;stroke-linejoin:miter;" x="348.005042" xlink:href="#mbbba6303b7" y="88.051599"/>
     <use style="fill:#2ca02c;stroke:#2ca02c;stroke-linejoin:miter;" x="350.56272" xlink:href="#mbbba6303b7" y="85.659631"/>
     <use style="fill:#2ca02c;stroke:#2ca02c;stroke-linejoin:miter;" x="353.120397" xlink:href="#mbbba6303b7" y="82.385912"/>
     <use style="fill:#2ca02c;stroke:#2ca02c;stroke-linejoin:miter;" x="355.678075" xlink:href="#mbbba6303b7" y="78.188422"/>
     <use style="fill:#2ca02c;stroke:#2ca02c;stroke-linejoin:miter;" x="358.235752" xlink:href="#mbbba6303b7" y="78.854749"/>
     <use style="fill:#2ca02c;stroke:#2ca02c;stroke-linejoin:miter;" x="360.79343" xlink:href="#mbbba6303b7" y="76.340405"/>
     <use style="fill:#2ca02c;stroke:#2ca02c;stroke-linejoin:miter;" x="363.351108" xlink:href="#mbbba6303b7" y="73.976844"/>
     <use style="fill:#2ca02c;stroke:#2ca02c;stroke-linejoin:miter;" x="365.908785" xlink:href="#mbbba6303b7" y="72.394009"/>
     <use style="fill:#2ca02c;stroke:#2ca02c;stroke-linejoin:miter;" x="368.466463" xlink:href="#mbbba6303b7" y="54.766155"/>
     <use style="fill:#2ca02c;stroke:#2ca02c;stroke-linejoin:miter;" x="371.024141" xlink:href="#mbbba6303b7" y="67.174253"/>
     <use style="fill:#2ca02c;stroke:#2ca02c;stroke-linejoin:miter;" x="373.581818" xlink:href="#mbbba6303b7" y="66.287452"/>
    </g>
   </g>
   <g id="patch_3">
    <path d="M 54 252 
L 54 34.56 
" style="fill:none;stroke:#000000;stroke-linecap:square;stroke-linejoin:miter;stroke-width:0.8;"/>
   </g>
   <g id="patch_4">
    <path d="M 388.8 252 
L 388.8 34.56 
" style="fill:none;stroke:#000000;stroke-linecap:square;stroke-linejoin:miter;stroke-width:0.8;"/>
   </g>
   <g id="patch_5">
    <path d="M 54 252 
L 388.8 252 
" style="fill:none;stroke:#000000;stroke-linecap:square;stroke-linejoin:miter;stroke-width:0.8;"/>
   </g>
   <g id="patch_6">
    <path d="M 54 34.56 
L 388.8 34.56 
" style="fill:none;stroke:#000000;stroke-linecap:square;stroke-linejoin:miter;stroke-width:0.8;"/>
   </g>
   <g id="text_5">
    <!-- F -->
    <defs>
     <path d="M 9.1875 72.90625 
L 59.90625 72.90625 
L 59.90625 58.6875 
L 27.984375 58.6875 
L 27.984375 45.125 
L 58.015625 45.125 
L 58.015625 30.90625 
L 27.984375 30.90625 
L 27.984375 0 
L 9.1875 0 
z
" id="DejaVuSans-Bold-70"/>
    </defs>
    <g transform="translate(54 28.56)scale(0.12 -0.12)">
     <use xlink:href="#DejaVuSans-Bold-70"/>
    </g>
   </g>
   <g id="legend_1">
    <g id="patch_7">
     <path d="M 66.6 185.610938 
L 268.905937 185.610938 
Q 272.505938 185.610938 272.505938 182.010938 
L 272.505938 104.549063 
Q 272.505938 100.949063 268.905937 100.949063 
L 66.6 100.949063 
Q 63 100.949063 63 104.549063 
L 63 182.010938 
Q 63 185.610938 66.6 185.610938 
z
" style="fill:#ffffff;opacity:0.8;stroke:#cccccc;stroke-linejoin:miter;"/>
    </g>
    <g id="line2d_36">
     <path d="M 70.2 115.52625 
L 106.2 115.52625 
" style="fill:none;stroke:#1f77b4;stroke-linecap:square;stroke-width:4;"/>
    </g>
    <g id="line2d_37"/>
    <g id="text_6">
     <!-- Prac-MDL-COMP -->
     <defs>
      <path d="M 19.671875 64.796875 
L 19.671875 37.40625 
L 32.078125 37.40625 
Q 38.96875 37.40625 42.71875 40.96875 
Q 46.484375 44.53125 46.484375 51.125 
Q 46.484375 57.671875 42.71875 61.234375 
Q 38.96875 64.796875 32.078125 64.796875 
z
M 9.8125 72.90625 
L 32.078125 72.90625 
Q 44.34375 72.90625 50.609375 67.359375 
Q 56.890625 61.8125 56.890625 51.125 
Q 56.890625 40.328125 50.609375 34.8125 
Q 44.34375 29.296875 32.078125 29.296875 
L 19.671875 29.296875 
L 19.671875 0 
L 9.8125 0 
z
" id="DejaVuSans-80"/>
      <path d="M 41.109375 46.296875 
Q 39.59375 47.171875 37.8125 47.578125 
Q 36.03125 48 33.890625 48 
Q 26.265625 48 22.1875 43.046875 
Q 18.109375 38.09375 18.109375 28.8125 
L 18.109375 0 
L 9.078125 0 
L 9.078125 54.6875 
L 18.109375 54.6875 
L 18.109375 46.1875 
Q 20.953125 51.171875 25.484375 53.578125 
Q 30.03125 56 36.53125 56 
Q 37.453125 56 38.578125 55.875 
Q 39.703125 55.765625 41.0625 55.515625 
z
" id="DejaVuSans-114"/>
      <path d="M 34.28125 27.484375 
Q 23.390625 27.484375 19.1875 25 
Q 14.984375 22.515625 14.984375 16.5 
Q 14.984375 11.71875 18.140625 8.90625 
Q 21.296875 6.109375 26.703125 6.109375 
Q 34.1875 6.109375 38.703125 11.40625 
Q 43.21875 16.703125 43.21875 25.484375 
L 43.21875 27.484375 
z
M 52.203125 31.203125 
L 52.203125 0 
L 43.21875 0 
L 43.21875 8.296875 
Q 40.140625 3.328125 35.546875 0.953125 
Q 30.953125 -1.421875 24.3125 -1.421875 
Q 15.921875 -1.421875 10.953125 3.296875 
Q 6 8.015625 6 15.921875 
Q 6 25.140625 12.171875 29.828125 
Q 18.359375 34.515625 30.609375 34.515625 
L 43.21875 34.515625 
L 43.21875 35.40625 
Q 43.21875 41.609375 39.140625 45 
Q 35.0625 48.390625 27.6875 48.390625 
Q 23 48.390625 18.546875 47.265625 
Q 14.109375 46.140625 10.015625 43.890625 
L 10.015625 52.203125 
Q 14.9375 54.109375 19.578125 55.046875 
Q 24.21875 56 28.609375 56 
Q 40.484375 56 46.34375 49.84375 
Q 52.203125 43.703125 52.203125 31.203125 
z
" id="DejaVuSans-97"/>
      <path d="M 48.78125 52.59375 
L 48.78125 44.1875 
Q 44.96875 46.296875 41.140625 47.34375 
Q 37.3125 48.390625 33.40625 48.390625 
Q 24.65625 48.390625 19.8125 42.84375 
Q 14.984375 37.3125 14.984375 27.296875 
Q 14.984375 17.28125 19.8125 11.734375 
Q 24.65625 6.203125 33.40625 6.203125 
Q 37.3125 6.203125 41.140625 7.25 
Q 44.96875 8.296875 48.78125 10.40625 
L 48.78125 2.09375 
Q 45.015625 0.34375 40.984375 -0.53125 
Q 36.96875 -1.421875 32.421875 -1.421875 
Q 20.0625 -1.421875 12.78125 6.34375 
Q 5.515625 14.109375 5.515625 27.296875 
Q 5.515625 40.671875 12.859375 48.328125 
Q 20.21875 56 33.015625 56 
Q 37.15625 56 41.109375 55.140625 
Q 45.0625 54.296875 48.78125 52.59375 
z
" id="DejaVuSans-99"/>
      <path d="M 4.890625 31.390625 
L 31.203125 31.390625 
L 31.203125 23.390625 
L 4.890625 23.390625 
z
" id="DejaVuSans-45"/>
      <path d="M 9.8125 72.90625 
L 24.515625 72.90625 
L 43.109375 23.296875 
L 61.8125 72.90625 
L 76.515625 72.90625 
L 76.515625 0 
L 66.890625 0 
L 66.890625 64.015625 
L 48.09375 14.015625 
L 38.1875 14.015625 
L 19.390625 64.015625 
L 19.390625 0 
L 9.8125 0 
z
" id="DejaVuSans-77"/>
      <path d="M 19.671875 64.796875 
L 19.671875 8.109375 
L 31.59375 8.109375 
Q 46.6875 8.109375 53.6875 14.9375 
Q 60.6875 21.78125 60.6875 36.53125 
Q 60.6875 51.171875 53.6875 57.984375 
Q 46.6875 64.796875 31.59375 64.796875 
z
M 9.8125 72.90625 
L 30.078125 72.90625 
Q 51.265625 72.90625 61.171875 64.09375 
Q 71.09375 55.28125 71.09375 36.53125 
Q 71.09375 17.671875 61.125 8.828125 
Q 51.171875 0 30.078125 0 
L 9.8125 0 
z
" id="DejaVuSans-68"/>
      <path d="M 9.8125 72.90625 
L 19.671875 72.90625 
L 19.671875 8.296875 
L 55.171875 8.296875 
L 55.171875 0 
L 9.8125 0 
z
" id="DejaVuSans-76"/>
      <path d="M 64.40625 67.28125 
L 64.40625 56.890625 
Q 59.421875 61.53125 53.78125 63.8125 
Q 48.140625 66.109375 41.796875 66.109375 
Q 29.296875 66.109375 22.65625 58.46875 
Q 16.015625 50.828125 16.015625 36.375 
Q 16.015625 21.96875 22.65625 14.328125 
Q 29.296875 6.6875 41.796875 6.6875 
Q 48.140625 6.6875 53.78125 8.984375 
Q 59.421875 11.28125 64.40625 15.921875 
L 64.40625 5.609375 
Q 59.234375 2.09375 53.4375 0.328125 
Q 47.65625 -1.421875 41.21875 -1.421875 
Q 24.65625 -1.421875 15.125 8.703125 
Q 5.609375 18.84375 5.609375 36.375 
Q 5.609375 53.953125 15.125 64.078125 
Q 24.65625 74.21875 41.21875 74.21875 
Q 47.75 74.21875 53.53125 72.484375 
Q 59.328125 70.75 64.40625 67.28125 
z
" id="DejaVuSans-67"/>
      <path d="M 39.40625 66.21875 
Q 28.65625 66.21875 22.328125 58.203125 
Q 16.015625 50.203125 16.015625 36.375 
Q 16.015625 22.609375 22.328125 14.59375 
Q 28.65625 6.59375 39.40625 6.59375 
Q 50.140625 6.59375 56.421875 14.59375 
Q 62.703125 22.609375 62.703125 36.375 
Q 62.703125 50.203125 56.421875 58.203125 
Q 50.140625 66.21875 39.40625 66.21875 
z
M 39.40625 74.21875 
Q 54.734375 74.21875 63.90625 63.9375 
Q 73.09375 53.65625 73.09375 36.375 
Q 73.09375 19.140625 63.90625 8.859375 
Q 54.734375 -1.421875 39.40625 -1.421875 
Q 24.03125 -1.421875 14.8125 8.828125 
Q 5.609375 19.09375 5.609375 36.375 
Q 5.609375 53.65625 14.8125 63.9375 
Q 24.03125 74.21875 39.40625 74.21875 
z
" id="DejaVuSans-79"/>
     </defs>
     <g transform="translate(120.6 121.82625)scale(0.18 -0.18)">
      <use xlink:href="#DejaVuSans-80"/>
      <use x="60.287109" xlink:href="#DejaVuSans-114"/>
      <use x="101.400391" xlink:href="#DejaVuSans-97"/>
      <use x="162.679688" xlink:href="#DejaVuSans-99"/>
      <use x="217.660156" xlink:href="#DejaVuSans-45"/>
      <use x="253.744141" xlink:href="#DejaVuSans-77"/>
      <use x="340.023438" xlink:href="#DejaVuSans-68"/>
      <use x="417.025391" xlink:href="#DejaVuSans-76"/>
      <use x="472.722656" xlink:href="#DejaVuSans-45"/>
      <use x="508.806641" xlink:href="#DejaVuSans-67"/>
      <use x="578.630859" xlink:href="#DejaVuSans-79"/>
      <use x="657.341797" xlink:href="#DejaVuSans-77"/>
      <use x="743.621094" xlink:href="#DejaVuSans-80"/>
     </g>
    </g>
    <g id="line2d_38">
     <path d="M 70.2 141.946875 
L 106.2 141.946875 
" style="fill:none;stroke:#ff7f0e;stroke-dasharray:1.5,2.475;stroke-dashoffset:0;stroke-width:1.5;"/>
    </g>
    <g id="line2d_39">
     <g>
      <use style="fill:#ff7f0e;stroke:#ff7f0e;stroke-linejoin:bevel;" x="88.2" xlink:href="#m7ecdf097ac" y="141.946875"/>
     </g>
    </g>
    <g id="text_7">
     <!-- Ridge-CV -->
     <defs>
      <path d="M 44.390625 34.1875 
Q 47.5625 33.109375 50.5625 29.59375 
Q 53.5625 26.078125 56.59375 19.921875 
L 66.609375 0 
L 56 0 
L 46.6875 18.703125 
Q 43.0625 26.03125 39.671875 28.421875 
Q 36.28125 30.8125 30.421875 30.8125 
L 19.671875 30.8125 
L 19.671875 0 
L 9.8125 0 
L 9.8125 72.90625 
L 32.078125 72.90625 
Q 44.578125 72.90625 50.734375 67.671875 
Q 56.890625 62.453125 56.890625 51.90625 
Q 56.890625 45.015625 53.6875 40.46875 
Q 50.484375 35.9375 44.390625 34.1875 
z
M 19.671875 64.796875 
L 19.671875 38.921875 
L 32.078125 38.921875 
Q 39.203125 38.921875 42.84375 42.21875 
Q 46.484375 45.515625 46.484375 51.90625 
Q 46.484375 58.296875 42.84375 61.546875 
Q 39.203125 64.796875 32.078125 64.796875 
z
" id="DejaVuSans-82"/>
      <path d="M 9.421875 54.6875 
L 18.40625 54.6875 
L 18.40625 0 
L 9.421875 0 
z
M 9.421875 75.984375 
L 18.40625 75.984375 
L 18.40625 64.59375 
L 9.421875 64.59375 
z
" id="DejaVuSans-105"/>
      <path d="M 45.40625 46.390625 
L 45.40625 75.984375 
L 54.390625 75.984375 
L 54.390625 0 
L 45.40625 0 
L 45.40625 8.203125 
Q 42.578125 3.328125 38.25 0.953125 
Q 33.9375 -1.421875 27.875 -1.421875 
Q 17.96875 -1.421875 11.734375 6.484375 
Q 5.515625 14.40625 5.515625 27.296875 
Q 5.515625 40.1875 11.734375 48.09375 
Q 17.96875 56 27.875 56 
Q 33.9375 56 38.25 53.625 
Q 42.578125 51.265625 45.40625 46.390625 
z
M 14.796875 27.296875 
Q 14.796875 17.390625 18.875 11.75 
Q 22.953125 6.109375 30.078125 6.109375 
Q 37.203125 6.109375 41.296875 11.75 
Q 45.40625 17.390625 45.40625 27.296875 
Q 45.40625 37.203125 41.296875 42.84375 
Q 37.203125 48.484375 30.078125 48.484375 
Q 22.953125 48.484375 18.875 42.84375 
Q 14.796875 37.203125 14.796875 27.296875 
z
" id="DejaVuSans-100"/>
      <path d="M 45.40625 27.984375 
Q 45.40625 37.75 41.375 43.109375 
Q 37.359375 48.484375 30.078125 48.484375 
Q 22.859375 48.484375 18.828125 43.109375 
Q 14.796875 37.75 14.796875 27.984375 
Q 14.796875 18.265625 18.828125 12.890625 
Q 22.859375 7.515625 30.078125 7.515625 
Q 37.359375 7.515625 41.375 12.890625 
Q 45.40625 18.265625 45.40625 27.984375 
z
M 54.390625 6.78125 
Q 54.390625 -7.171875 48.1875 -13.984375 
Q 42 -20.796875 29.203125 -20.796875 
Q 24.46875 -20.796875 20.265625 -20.09375 
Q 16.0625 -19.390625 12.109375 -17.921875 
L 12.109375 -9.1875 
Q 16.0625 -11.328125 19.921875 -12.34375 
Q 23.78125 -13.375 27.78125 -13.375 
Q 36.625 -13.375 41.015625 -8.765625 
Q 45.40625 -4.15625 45.40625 5.171875 
L 45.40625 9.625 
Q 42.625 4.78125 38.28125 2.390625 
Q 33.9375 0 27.875 0 
Q 17.828125 0 11.671875 7.65625 
Q 5.515625 15.328125 5.515625 27.984375 
Q 5.515625 40.671875 11.671875 48.328125 
Q 17.828125 56 27.875 56 
Q 33.9375 56 38.28125 53.609375 
Q 42.625 51.21875 45.40625 46.390625 
L 45.40625 54.6875 
L 54.390625 54.6875 
z
" id="DejaVuSans-103"/>
      <path d="M 56.203125 29.59375 
L 56.203125 25.203125 
L 14.890625 25.203125 
Q 15.484375 15.921875 20.484375 11.0625 
Q 25.484375 6.203125 34.421875 6.203125 
Q 39.59375 6.203125 44.453125 7.46875 
Q 49.3125 8.734375 54.109375 11.28125 
L 54.109375 2.78125 
Q 49.265625 0.734375 44.1875 -0.34375 
Q 39.109375 -1.421875 33.890625 -1.421875 
Q 20.796875 -1.421875 13.15625 6.1875 
Q 5.515625 13.8125 5.515625 26.8125 
Q 5.515625 40.234375 12.765625 48.109375 
Q 20.015625 56 32.328125 56 
Q 43.359375 56 49.78125 48.890625 
Q 56.203125 41.796875 56.203125 29.59375 
z
M 47.21875 32.234375 
Q 47.125 39.59375 43.09375 43.984375 
Q 39.0625 48.390625 32.421875 48.390625 
Q 24.90625 48.390625 20.390625 44.140625 
Q 15.875 39.890625 15.1875 32.171875 
z
" id="DejaVuSans-101"/>
      <path d="M 28.609375 0 
L 0.78125 72.90625 
L 11.078125 72.90625 
L 34.1875 11.53125 
L 57.328125 72.90625 
L 67.578125 72.90625 
L 39.796875 0 
z
" id="DejaVuSans-86"/>
     </defs>
     <g transform="translate(120.6 148.246875)scale(0.18 -0.18)">
      <use xlink:href="#DejaVuSans-82"/>
      <use x="69.482422" xlink:href="#DejaVuSans-105"/>
      <use x="97.265625" xlink:href="#DejaVuSans-100"/>
      <use x="160.742188" xlink:href="#DejaVuSans-103"/>
      <use x="224.21875" xlink:href="#DejaVuSans-101"/>
      <use x="285.742188" xlink:href="#DejaVuSans-45"/>
      <use x="321.826172" xlink:href="#DejaVuSans-67"/>
      <use x="391.650391" xlink:href="#DejaVuSans-86"/>
     </g>
    </g>
    <g id="line2d_40">
     <path d="M 70.2 168.3675 
L 106.2 168.3675 
" style="fill:none;stroke:#2ca02c;stroke-dasharray:1.5,2.475;stroke-dashoffset:0;stroke-width:1.5;"/>
    </g>
    <g id="line2d_41">
     <g>
      <use style="fill:#2ca02c;stroke:#2ca02c;stroke-linejoin:miter;" x="88.2" xlink:href="#mbbba6303b7" y="168.3675"/>
     </g>
    </g>
    <g id="text_8">
     <!-- OLS -->
     <defs>
      <path d="M 53.515625 70.515625 
L 53.515625 60.890625 
Q 47.90625 63.578125 42.921875 64.890625 
Q 37.9375 66.21875 33.296875 66.21875 
Q 25.25 66.21875 20.875 63.09375 
Q 16.5 59.96875 16.5 54.203125 
Q 16.5 49.359375 19.40625 46.890625 
Q 22.3125 44.4375 30.421875 42.921875 
L 36.375 41.703125 
Q 47.40625 39.59375 52.65625 34.296875 
Q 57.90625 29 57.90625 20.125 
Q 57.90625 9.515625 50.796875 4.046875 
Q 43.703125 -1.421875 29.984375 -1.421875 
Q 24.8125 -1.421875 18.96875 -0.25 
Q 13.140625 0.921875 6.890625 3.21875 
L 6.890625 13.375 
Q 12.890625 10.015625 18.65625 8.296875 
Q 24.421875 6.59375 29.984375 6.59375 
Q 38.421875 6.59375 43.015625 9.90625 
Q 47.609375 13.234375 47.609375 19.390625 
Q 47.609375 24.75 44.3125 27.78125 
Q 41.015625 30.8125 33.5 32.328125 
L 27.484375 33.5 
Q 16.453125 35.6875 11.515625 40.375 
Q 6.59375 45.0625 6.59375 53.421875 
Q 6.59375 63.09375 13.40625 68.65625 
Q 20.21875 74.21875 32.171875 74.21875 
Q 37.3125 74.21875 42.625 73.28125 
Q 47.953125 72.359375 53.515625 70.515625 
z
" id="DejaVuSans-83"/>
     </defs>
     <g transform="translate(120.6 174.6675)scale(0.18 -0.18)">
      <use xlink:href="#DejaVuSans-79"/>
      <use x="78.710938" xlink:href="#DejaVuSans-76"/>
      <use x="134.423828" xlink:href="#DejaVuSans-83"/>
     </g>
    </g>
   </g>
  </g>
 </g>
 <defs>
  <clipPath id="pcf4fa9585e">
   <rect height="217.44" width="334.8" x="54" y="34.56"/>
  </clipPath>
 </defs>
</svg>
